{
	"asset":{
		"generator":"Khronos glTF Blender I/O v3.5.30",
		"version":"2.0"
	},
	"scene":0,
	"scenes":[
		{
			"extras":{
				"zen_display":{
					"stacked":0,
					"finished":0,
					"stretch":0
				},
				"last_cached_frame":-500000,
				"bc":{
					"snap":{
						"hit":0
					}
				},
				"fluentProp":{
					"model_resolution":16,
					"width":0.009999999776482582,
					"min_auto_bevel_segments":4,
					"min_auto_cylinder_segments":16
				},
				"uuid":"5dc4c425-0054-4752-8e61-72de0b52603e",
				"assets reported":{},
				"uvpm3_props":{},
				"custom_error":[
					"Scene compositor use nodes turned on to enable caching"
				]
			},
			"name":"Scene",
			"nodes":[
				0,
				1,
				2
			]
		}
	],
	"nodes":[
		{
			"extras":{
				"hops":{}
			},
			"mesh":0,
			"name":"TekstL",
			"rotation":[
				0.7765262722969055,
				0.13319510221481323,
				-0.13319505751132965,
				0.601269543170929
			],
			"translation":[
				0.7765269875526428,
				-0.06012484058737755,
				0
			]
		},
		{
			"extras":{
				"hops":{}
			},
			"mesh":1,
			"name":"TekstU",
			"rotation":[
				0.5529477000236511,
				-0.10850656032562256,
				0.10850654542446136,
				0.8189637064933777
			],
			"translation":[
				0.0011816024780273438,
				-0.23259761929512024,
				0
			]
		},
		{
			"extras":{
				"hops":{}
			},
			"mesh":2,
			"name":"TekstB",
			"rotation":[
				0.7909566164016724,
				0.18840426206588745,
				-0.20307880640029907,
				0.5455735325813293
			],
			"translation":[
				-0.5891692638397217,
				0.04309894144535065,
				0.04822596535086632
			]
		}
	],
	"materials":[
		{
			"doubleSided":true,
			"emissiveFactor":[
				0.00860895027156472,
				0.038875201399135584,
				0.15000000596046448
			],
			"name":"Material",
			"pbrMetallicRoughness":{
				"baseColorFactor":[
					0.056854572147130966,
					0.1485711932182312,
					1,
					1
				],
				"metallicFactor":0,
				"roughnessFactor":0.3272727131843567
			}
		}
	],
	"meshes":[
		{
			"extras":{
				"hops":{}
			},
			"name":"\u0422\u0435\u043a\u0441\u0442.007",
			"primitives":[
				{
					"attributes":{
						"POSITION":0,
						"NORMAL":1
					},
					"indices":2,
					"material":0
				}
			]
		},
		{
			"extras":{
				"hops":{}
			},
			"name":"\u0422\u0435\u043a\u0441\u0442.008",
			"primitives":[
				{
					"attributes":{
						"POSITION":3,
						"NORMAL":4
					},
					"indices":5,
					"material":0
				}
			]
		},
		{
			"extras":{
				"hops":{}
			},
			"name":"\u0422\u0435\u043a\u0441\u0442.009",
			"primitives":[
				{
					"attributes":{
						"POSITION":6,
						"NORMAL":7
					},
					"indices":8,
					"material":0
				}
			]
		}
	],
	"accessors":[
		{
			"bufferView":0,
			"componentType":5126,
			"count":38202,
			"max":[
				0.3883930444717407,
				0.09375002235174179,
				0.334821492433548
			],
			"min":[
				-0.3883928656578064,
				-0.09375002235174179,
				-0.5223215818405151
			],
			"type":"VEC3"
		},
		{
			"bufferView":1,
			"componentType":5126,
			"count":38202,
			"type":"VEC3"
		},
		{
			"bufferView":2,
			"componentType":5123,
			"count":151872,
			"type":"SCALAR"
		},
		{
			"bufferView":3,
			"componentType":5126,
			"count":53624,
			"max":[
				0.3883931636810303,
				0.09375002235174179,
				0.2848215699195862
			],
			"min":[
				-0.38839268684387207,
				-0.09375002235174179,
				-0.5723215341567993
			],
			"type":"VEC3"
		},
		{
			"bufferView":4,
			"componentType":5126,
			"count":53624,
			"type":"VEC3"
		},
		{
			"bufferView":5,
			"componentType":5123,
			"count":193920,
			"type":"SCALAR"
		},
		{
			"bufferView":6,
			"componentType":5126,
			"count":77781,
			"max":[
				0.2693454623222351,
				0.09375002235174179,
				0.4637897312641144
			],
			"min":[
				-0.507440447807312,
				-0.09375002235174179,
				-0.39335331320762634
			],
			"type":"VEC3"
		},
		{
			"bufferView":7,
			"componentType":5126,
			"count":77781,
			"type":"VEC3"
		},
		{
			"bufferView":8,
			"componentType":5125,
			"count":273600,
			"type":"SCALAR"
		}
	],
	"bufferViews":[
		{
			"buffer":0,
			"byteLength":458424,
			"byteOffset":0,
			"target":34962
		},
		{
			"buffer":0,
			"byteLength":458424,
			"byteOffset":458424,
			"target":34962
		},
		{
			"buffer":0,
			"byteLength":303744,
			"byteOffset":916848,
			"target":34963
		},
		{
			"buffer":0,
			"byteLength":643488,
			"byteOffset":1220592,
			"target":34962
		},
		{
			"buffer":0,
			"byteLength":643488,
			"byteOffset":1864080,
			"target":34962
		},
		{
			"buffer":0,
			"byteLength":387840,
			"byteOffset":2507568,
			"target":34963
		},
		{
			"buffer":0,
			"byteLength":933372,
			"byteOffset":2895408,
			"target":34962
		},
		{
			"buffer":0,
			"byteLength":933372,
			"byteOffset":3828780,
			"target":34962
		},
		{
			"buffer":0,
			"byteLength":1094400,
			"byteOffset":4762152,
			"target":34963
		}
	],
	"buffers":[
		{
			"byteLength":5856552,
			"uri":"WIP3D.bin"
		}
	]
}
